<svg viewBox="0 0 24 24" fill="none" xmlns="http://www.w3.org/2000/svg"><path fill-rule="evenodd" clip-rule="evenodd" d="M15.831 2c.385 0 .698.313.698.698v.788c1.358.093 2.486.559 3.285 1.359.872.875 1.33 2.134 1.326 3.643v8.487c0 3.1-1.969 5.025-5.136 5.025H8.136C4.968 22 3 20.047 3 16.904V8.487c0-2.924 1.755-4.8 4.618-5v-.79a.698.698 0 0 1 1.396 0v.772h6.119v-.771c0-.385.313-.698.698-.698Zm3.913 8.283H4.395v6.621c0 2.387 1.329 3.7 3.74 3.7h7.869c2.412 0 3.74-1.289 3.74-3.63v-6.691Zm-3.534 5.853a.698.698 0 0 1 0 1.395.701.701 0 0 1-.701-.697c0-.385.308-.698.693-.698h.008Zm-4.128 0a.698.698 0 0 1 0 1.395.701.701 0 0 1-.7-.697c0-.385.307-.698.692-.698h.008Zm-4.136 0a.698.698 0 0 1 0 1.395.702.702 0 0 1-.702-.697c0-.385.308-.698.694-.698h.008Zm8.264-3.615a.698.698 0 0 1 0 1.395.701.701 0 0 1-.701-.698c0-.385.308-.697.693-.697h.008Zm-4.128 0a.698.698 0 0 1 0 1.395.701.701 0 0 1-.7-.698c0-.385.307-.697.692-.697h.008Zm-4.136 0a.698.698 0 0 1 0 1.395.702.702 0 0 1-.702-.698c0-.385.308-.697.694-.697h.008Zm7.187-7.657h-6.12l.001.895a.698.698 0 0 1-1.395 0v-.874c-2.085.175-3.224 1.439-3.224 3.602v.4h15.35v-.4c.003-1.15-.306-2.042-.919-2.656-.538-.54-1.325-.862-2.296-.945l-.001.873a.698.698 0 0 1-1.396 0v-.895Z" fill="#373B5C"/></svg>