<svg viewBox="0 0 24 24" fill="none" xmlns="http://www.w3.org/2000/svg"><path d="M17.616 10.455c-1.643 0-3.105.947-3.835 2.272H10.4c-.821-1.42-2.19-2.272-3.926-2.272C4.009 10.455 2 12.443 2 15s2.01 4.546 4.475 4.546c2.466 0 4.475-2.084 4.475-4.546v-.379h2.1V15c0 2.557 2.01 4.546 4.475 4.546C19.991 19.546 22 17.462 22 15s-1.918-4.545-4.384-4.545ZM6.475 17.65c-1.461 0-2.649-1.23-2.649-2.651 0-1.42 1.188-2.652 2.649-2.652S9.123 13.58 9.123 15c0 1.42-1.096 2.651-2.648 2.651Zm11.141 0c-1.46 0-2.648-1.23-2.648-2.651 0-1.42 1.187-2.652 2.648-2.652 1.462 0 2.649 1.137 2.649 2.652 0 1.515-1.187 2.651-2.649 2.651ZM2.49 10.37c.086.085.256.085.341.085.34 0 .681-.17.766-.512l.851-2.045c.34-.767 1.022-1.193 1.788-1.193h1.277c.51 0 .85-.341.85-.853A.853.853 0 0 0 7.514 5H6.236c-1.447 0-2.809.852-3.32 2.13l-.85 2.131c-.171.427 0 .938.425 1.108ZM16.494 6.732h1.287c.771 0 1.458.433 1.715 1.125l.858 2.078c.171.346.428.52.771.52.086 0 .258 0 .343-.087.43-.173.687-.693.43-1.126l-.858-2.078C20.61 5.867 19.239 5 17.78 5h-1.286c-.515 0-.858.346-.858.866s.43.866.858.866Z" fill="#373B5C"/></svg>