<svg viewBox="0 0 24 24" fill="none" xmlns="http://www.w3.org/2000/svg"><path fill-rule="evenodd" clip-rule="evenodd" d="M12.001 2a9.933 9.933 0 0 1 7.073 2.927c3.9 3.901 3.9 10.247 0 14.148A10.033 10.033 0 0 1 11.979 22c-1.422 0-2.853-.3-4.192-.92-.394-.158-.764-.307-1.029-.307-.305.002-.716.143-1.112.28-.813.279-1.826.627-2.575-.12-.746-.747-.402-1.756-.124-2.568.136-.4.277-.814.277-1.126 0-.257-.124-.585-.314-1.056-1.742-3.764-.937-8.3 2.02-11.255A9.932 9.932 0 0 1 12 2Zm.001 1.396a8.547 8.547 0 0 0-6.086 2.52 8.647 8.647 0 0 0-1.724 9.714c.217.539.428 1.063.428 1.609 0 .544-.187 1.092-.352 1.576-.136.398-.341 1-.21 1.131.13.134.735-.077 1.134-.214.48-.163 1.023-.351 1.561-.355.54 0 1.049.205 1.588.422 3.3 1.526 7.204.831 9.747-1.71 3.355-3.358 3.355-8.82 0-12.174a8.548 8.548 0 0 0-6.086-2.52Zm3.673 8.06a.93.93 0 1 1 0 1.861.933.933 0 0 1-.934-.93c0-.515.412-.93.925-.93h.009Zm-3.73 0a.93.93 0 1 1 0 1.861.933.933 0 0 1-.934-.93c0-.515.41-.93.925-.93h.009Zm-3.73 0a.93.93 0 1 1 0 1.861.933.933 0 0 1-.935-.93c0-.515.412-.93.926-.93h.008Z" fill="#373B5C"/></svg>