<svg viewBox="0 0 25 25" fill="none" xmlns="http://www.w3.org/2000/svg"><path fill-rule="evenodd" clip-rule="evenodd" d="M11.32 2.485a4.224 4.224 0 0 1 4.22 4.22v.886a.714.714 0 0 1-1.427 0v-.887a2.795 2.795 0 0 0-2.793-2.792H6.684a2.794 2.794 0 0 0-2.79 2.792V17.29a2.793 2.793 0 0 0 2.79 2.79h4.647a2.785 2.785 0 0 0 2.782-2.78v-.897a.714.714 0 0 1 1.426 0v.897a4.213 4.213 0 0 1-4.208 4.207H6.684a4.222 4.222 0 0 1-4.216-4.217V6.704a4.222 4.222 0 0 1 4.216-4.219h4.636Zm7.685 6.234 2.785 2.772c.025.025.047.05.067.077l-.067-.077a.695.695 0 0 1 .207.441.63.63 0 0 1 .003.064l-.005.059-.002.038v.005l.007-.102a.712.712 0 0 1-.216.511l-2.779 2.767a.71.71 0 0 1-1.008-.002.713.713 0 0 1 .002-1.008l1.56-1.555H9.834a.714.714 0 0 1 0-1.426h9.725L18 9.729a.712.712 0 1 1 1.006-1.01Z" fill="#373B5C"/></svg>