<svg viewBox="0 0 24 24" fill="none" xmlns="http://www.w3.org/2000/svg"><g clip-path="url(#a)" fill="#373B5C"><path d="M15.52 7.767c-1.002-.536-2.207-.35-3.03.472-2.684 2.682-6.914 6.763-9.598 9.447-.069.069-.14.136-.204.21-.698.794-.883 1.696-.471 2.67.42.991 1.218 1.47 2.18 1.525.817-.01 1.416-.278 1.919-.782 2.117-2.12 5.783-5.634 7.901-7.752.622-.622 1.251-1.238 1.865-1.868 1.17-1.202.888-3.145-.563-3.921v-.001Zm-2.657 5.065c-2.019 2.013-5.582 5.424-7.598 7.44-.205.205-.45.312-.76.325-.41-.026-.734-.216-.914-.618a.983.983 0 0 1 .206-1.114c.65-.658 1.307-1.31 1.961-1.965 1.365-1.365 4.279-4.127 5.641-5.496.092-.092.14-.1.235-.002.404.416.816.825 1.23 1.232.081.079.077.12 0 .198h-.001Zm2.216-2.228c-.324.35-.672.678-1.008 1.018-.046.047-.075.068-.134.008-.457-.461-.917-.919-1.377-1.38.36-.36.706-.722 1.068-1.066a1.016 1.016 0 0 1 1.404.02c.386.374.416 1 .047 1.4ZM14.39 4.274c0-.44-.002-.88 0-1.32.003-.412.28-.704.666-.707.387-.002.675.29.676.697.004.873.003 1.746 0 2.619-.001.407-.287.709-.666.713-.382.004-.674-.307-.676-.725-.003-.426 0-.852 0-1.278ZM19.983 9.857c-.433 0-.866.003-1.3 0-.405-.003-.709-.29-.712-.667-.003-.38.297-.674.703-.675.873-.003 1.746-.003 2.619 0 .41 0 .705.282.707.666.002.393-.294.674-.718.676-.433.003-.866 0-1.299 0ZM13.2 6.664c-.017.27-.14.486-.403.599-.27.115-.525.074-.735-.131-.435-.425-.861-.858-1.291-1.287-.203-.202-.408-.402-.607-.608-.274-.284-.277-.69-.013-.957a.665.665 0 0 1 .957.006c.631.623 1.255 1.253 1.883 1.88.136.135.2.298.208.498ZM20.166 4.739a.683.683 0 0 1-.2.492c-.633.632-1.262 1.267-1.899 1.895a.658.658 0 0 1-.94.003.66.66 0 0 1 0-.956c.629-.636 1.262-1.267 1.897-1.897.21-.207.463-.25.733-.14.265.11.393.322.41.602ZM17.587 11.047a.703.703 0 0 1 .49.203c.626.628 1.256 1.252 1.88 1.883.278.28.279.692.016.957-.269.272-.682.27-.972-.017a338.67 338.67 0 0 1-1.867-1.867c-.213-.214-.268-.47-.152-.75.11-.263.324-.39.606-.409Z"/></g><defs><clipPath id="a"><path fill="#fff" transform="translate(2 2.247)" d="M0 0h20v19.843H0z"/></clipPath></defs></svg>