<svg viewBox="0 0 24 24" fill="none" xmlns="http://www.w3.org/2000/svg"><path d="M19.7 8.594c.548-.046 1.058-.074 1.563-.142.108-.015.207-.17.293-.274.044-.054.04-.15.083-.207a.22.22 0 0 1 .163-.081c.04.001.097.067.111.116.285.933-.145 1.751-1.053 1.99-.83.22-1.665.418-2.495.638-.182.048-.284 0-.334-.18-.183-.656-.346-1.32-.555-1.966-.159-.492-.065-.871.32-1.193.2-.168.39-.353.577-.54.047-.047.067-.126.1-.191-.072 0-.153-.024-.214.002-.576.246-1.001.682-1.31 1.23-.226.404-.447.823-.593 1.264a52.946 52.946 0 0 0-.955 3.183c-.252.964-.116 1.907.336 2.796.443.873.98 1.676 1.62 2.407.215.245.47.394.782.4.584.008 1.169-.006 1.753-.01.22-.002.353-.122.388-.341.047-.298.102-.599.108-.9.007-.313-.15-.415-.43-.286-.357.165-.7.364-1.051.545-.094.048-.191.167-.296.025-.101-.138-.001-.238.085-.32.19-.181.38-.368.592-.522a44.852 44.852 0 0 1 1.688-1.18c.369-.243.549-.152.622.29.169 1.012.262 2.03.115 3.056-.056.392-.218.682-.57.888-.724.426-1.467.777-2.301.882-1.103.141-2-.258-2.801-1.046-.728-.716-1.5-1.391-2.305-2.012-1.222-.942-2.638-1.458-4.118-1.748a76.782 76.782 0 0 0-4.095-.663c-.5-.07-.827-.275-1.04-.757a250.972 250.972 0 0 0-1.925-4.214c-.612-1.31-.68-2.66-.4-4.07.096-.48.307-.825.65-1.13A6.866 6.866 0 0 1 4.895 3.06c.17-.066.259-.026.311.157.278.977.411 1.973.395 2.99-.002.112-.013.214-.146.23-.148.017-.155-.104-.17-.203a4.18 4.18 0 0 0-.442-1.348c-.14-.256-.27-.3-.525-.163-.528.284-.767.757-.74 1.36.013.293.046.607.16.869.219.5.467.995.765 1.448.422.64 1.083.863 1.793.937.648.066 1.3.107 1.947.177.091.01.2.1.255.185.49.755 1.025 1.463 1.674 2.08.475.452 1.035.746 1.616 1.005.05.022.131-.033.198-.051-.042-.067-.068-.163-.128-.196a7.18 7.18 0 0 1-1.826-1.426 7.774 7.774 0 0 1-1.154-1.635c-.1-.187-.11-.367.01-.546 1.225-1.814 2.517-3.568 3.966-5.2.579-.652 1.227-.816 2.005-.691 1.673.27 3.346.545 5.019.82.072.011.143.031.213.054.372.121.503.36.386.748-.143.474-.323.937-.458 1.413a8.508 8.508 0 0 0-.318 2.21v.31Zm-5.072 3.532.195-.09c-.052-.056-.094-.128-.155-.166a1.256 1.256 0 0 0-1.039-.134c-.61.18-1.028.769-1.003 1.408.026.667.525 1.293 1.138 1.436a.96.96 0 0 0 .696-.085c.039-.021.06-.077.09-.117-.036-.026-.07-.057-.11-.077-.028-.015-.065-.011-.096-.02-.504-.128-.869-.666-.804-1.184.07-.57.546-1.012 1.088-.97v-.001Z" fill="#373B5C"/></svg>